<svg xmlns="http://www.w3.org/2000/svg" xmlns:xlink="http://www.w3.org/1999/xlink" width="500" zoomAndPan="magnify" viewBox="0 0 375 374.999991" height="500" preserveAspectRatio="xMidYMid meet" version="1.0"><defs><g/><clipPath id="id1"><path d="M 134 82.132812 L 242 82.132812 L 242 230 L 134 230 Z M 134 82.132812 " clip-rule="nonzero"/></clipPath></defs><g clip-path="url(#id1)"><path fill="#421100" d="M 153.085938 194.214844 C 152.832031 192.105469 152.964844 190.023438 153.496094 187.96875 C 152.148438 187.996094 150.84375 187.769531 149.585938 187.300781 C 148.921875 187.058594 148.296875 186.742188 147.710938 186.351562 C 147.125 185.957031 146.59375 185.503906 146.117188 184.984375 C 145.640625 184.464844 145.234375 183.898438 144.894531 183.28125 C 144.554688 182.664062 144.296875 182.015625 144.113281 181.335938 C 142.785156 176.703125 150.617188 173.433594 152.125 179.050781 C 152.179688 179.246094 153.3125 179.453125 153.3125 177.925781 C 153.3125 174.085938 148.78125 173.464844 146.328125 175.347656 C 141.753906 178.871094 141.734375 191.527344 153.085938 194.214844 M 187.941406 101.921875 C 190.53125 100.28125 192.753906 98.214844 193.515625 95.25 C 193.554688 95.097656 193.625 94.960938 193.71875 94.835938 C 193.8125 94.710938 193.929688 94.609375 194.066406 94.53125 C 194.203125 94.453125 194.351562 94.40625 194.507812 94.386719 C 194.664062 94.371094 194.816406 94.382812 194.96875 94.425781 C 195.898438 94.617188 202.28125 96.164062 203.457031 102.5 C 204.484375 101.539062 205.644531 100.074219 205.679688 98.335938 C 205.683594 98.140625 205.734375 97.957031 205.832031 97.785156 C 205.929688 97.613281 206.066406 97.476562 206.234375 97.371094 C 206.402344 97.269531 206.585938 97.210938 206.78125 97.203125 C 206.980469 97.191406 207.167969 97.230469 207.347656 97.316406 C 207.363281 97.316406 213.472656 100.160156 212.613281 108.679688 C 221.035156 113.519531 226.0625 120.234375 228.449219 128.4375 C 231.703125 127.890625 234.234375 129.492188 235.902344 132.292969 C 236.890625 134.039062 237.523438 135.902344 237.808594 137.886719 C 238.148438 140.105469 238.179688 142.324219 237.902344 144.546875 C 237 151.855469 232.882812 159.40625 224.664062 161.585938 C 221.484375 167.003906 217.257812 171.4375 211.988281 174.882812 L 212.023438 174.945312 C 220.613281 172.351562 225.542969 160.179688 233.050781 160.566406 C 240.496094 160.953125 247.167969 171.125 236.136719 182.394531 C 233.792969 184.785156 231.164062 186.808594 228.25 188.460938 C 225.335938 190.113281 222.25 191.335938 218.992188 192.125 C 219.738281 195.246094 220.101562 198.414062 220.085938 201.625 C 221.660156 202.46875 223.1875 203.722656 224.113281 205.4375 C 230.914062 201.671875 241.832031 206.582031 238.003906 218.683594 C 236.082031 224.769531 231.019531 229.070312 224.199219 229.371094 C 214.808594 229.78125 214.019531 222.964844 204.867188 226.117188 C 196.015625 230.441406 184.863281 230.507812 175.785156 226.117188 C 166.667969 222.996094 165.859375 229.792969 156.492188 229.382812 C 149.667969 229.082031 144.609375 224.78125 142.6875 218.695312 C 138.851562 206.566406 149.828125 201.664062 156.628906 205.476562 C 156.902344 204.945312 157.234375 204.457031 157.621094 204.003906 C 129.644531 203.789062 128.199219 170.546875 145.355469 165.617188 C 152.4375 163.585938 159.71875 167.023438 161.960938 173.574219 C 162.8125 172.636719 163.5625 171.886719 164.117188 171.355469 C 160.988281 168.5625 158.359375 165.367188 156.234375 161.757812 C 156.160156 161.6875 156.101562 161.609375 156.050781 161.523438 L 156.050781 161.574219 C 147.816406 159.40625 143.6875 151.851562 142.792969 144.535156 C 142.511719 142.3125 142.539062 140.089844 142.878906 137.871094 C 143.164062 135.886719 143.796875 134.023438 144.785156 132.277344 C 146.523438 129.359375 149.195312 127.746094 152.648438 128.5 C 153.5 126.140625 154.636719 123.933594 156.058594 121.867188 C 157.480469 119.804688 159.144531 117.953125 161.042969 116.316406 C 159.75 115.25 158.796875 113.9375 158.191406 112.375 C 156.457031 108.257812 154.796875 104.097656 153.109375 99.964844 C 148.46875 101.058594 146.730469 96.046875 151.933594 93.929688 C 156.144531 92.242188 158.484375 95.210938 156.792969 97.6875 L 158.296875 98.585938 L 159.402344 95.945312 C 159.457031 95.800781 159.535156 95.671875 159.636719 95.558594 C 159.738281 95.445312 159.859375 95.355469 159.996094 95.292969 C 160.132812 95.226562 160.28125 95.1875 160.433594 95.179688 C 160.585938 95.171875 160.734375 95.191406 160.878906 95.242188 L 163.90625 96.289062 L 164.394531 93.402344 C 163.308594 93.292969 162.390625 92.800781 161.988281 91.757812 C 161.234375 89.832031 163.121094 88.027344 165.015625 87.257812 C 166.90625 86.492188 169.488281 86.527344 170.253906 88.429688 C 170.667969 89.441406 170.367188 90.429688 169.671875 91.253906 L 171.777344 92.785156 L 173.402344 90.386719 C 173.527344 90.191406 173.695312 90.046875 173.90625 89.949219 C 174.117188 89.855469 174.335938 89.824219 174.566406 89.859375 L 177.773438 90.355469 L 178.121094 88.996094 C 177.648438 88.941406 177.226562 88.769531 176.847656 88.480469 C 176.472656 88.195312 176.195312 87.832031 176.015625 87.394531 C 175.257812 85.476562 177.148438 83.664062 179.042969 82.894531 C 180.933594 82.128906 183.519531 82.171875 184.292969 84.0625 C 184.925781 85.605469 183.890625 87.089844 182.34375 88.03125 L 187.4375 100.453125 C 187.632812 100.933594 187.800781 101.421875 187.941406 101.921875 Z M 187.941406 101.921875 " fill-opacity="1" fill-rule="nonzero"/></g><path fill="#c3522b" d="M 218.40625 189.863281 C 221.460938 189.128906 224.351562 187.988281 227.082031 186.441406 C 229.8125 184.894531 232.277344 183.003906 234.472656 180.765625 C 243.957031 171.085938 238.542969 163.160156 232.933594 162.867188 C 227.109375 162.566406 222.015625 173.984375 213.152344 177.007812 C 215.355469 181.109375 217.109375 185.394531 218.40625 189.863281 " fill-opacity="1" fill-rule="nonzero"/><path fill="#a3320b" d="M 218.40625 189.863281 C 221.460938 189.128906 224.351562 187.988281 227.082031 186.441406 C 229.8125 184.894531 232.277344 183.003906 234.472656 180.765625 C 238.082031 177.074219 239.527344 173.640625 239.632812 170.789062 C 237.332031 176.507812 234.46875 180.765625 226.695312 182.078125 C 219.855469 183.230469 218.574219 175.914062 218.359375 174.121094 C 216.785156 175.367188 215.054688 176.328125 213.164062 177.007812 C 215.371094 181.109375 217.121094 185.394531 218.417969 189.863281 " fill-opacity="1" fill-rule="nonzero"/><path fill="#a3320b" d="M 156.265625 201.648438 C 155.085938 200.152344 154.207031 198.496094 153.628906 196.683594 C 139.351562 194.148438 138.621094 178.34375 144.902344 173.511719 C 148.957031 170.390625 155.636719 172.195312 155.636719 177.917969 C 155.636719 182.160156 150.632812 182.476562 149.875 179.644531 C 149.195312 177.085938 145.867188 178.992188 146.355469 180.703125 C 147.472656 184.601562 151.46875 186.097656 154.234375 185.582031 C 155.632812 181.773438 157.972656 178.332031 160.121094 175.683594 C 157.949219 164.480469 139.765625 163.6875 136.835938 178.707031 C 135.265625 186.746094 138.875 194.984375 145.929688 198.882812 C 149 200.578125 152.546875 201.441406 156.265625 201.636719 " fill-opacity="1" fill-rule="nonzero"/><path fill="#932210" d="M 156.265625 201.648438 C 155.085938 200.152344 154.207031 198.496094 153.628906 196.683594 C 151.789062 196.375 150.046875 195.78125 148.402344 194.902344 C 150.425781 197.28125 148.574219 198.441406 147.164062 197.898438 C 138.136719 194.351562 136.519531 181.765625 136.496094 181.558594 C 136.160156 188.640625 139.707031 195.457031 145.929688 198.902344 C 149 200.59375 152.546875 201.460938 156.265625 201.652344 " fill-opacity="1" fill-rule="nonzero"/><path fill="#d1a179" d="M 154.167969 180.992188 C 152.628906 181.996094 150.371094 181.476562 149.878906 179.648438 C 149.195312 177.085938 145.867188 178.992188 146.355469 180.703125 C 147.257812 183.855469 150.042969 185.429688 152.53125 185.652344 C 152.464844 184.796875 152.574219 183.960938 152.859375 183.152344 C 153.144531 182.339844 153.582031 181.621094 154.167969 180.992188 Z M 154.167969 180.992188 " fill-opacity="1" fill-rule="nonzero"/><path fill="#c3522b" d="M 159.855469 205.164062 L 159.753906 205.097656 C 159.234375 205.605469 158.824219 206.191406 158.523438 206.855469 C 160.089844 208.410156 161.042969 210.277344 161.375 212.457031 C 161.523438 213.171875 160.1875 213.53125 160.027344 212.597656 C 158.273438 202.5 140.742188 204.820312 144.898438 217.976562 C 146.53125 223.148438 150.78125 226.78125 156.582031 227.035156 C 163.199219 227.335938 165.324219 223.226562 170.617188 222.914062 C 165.398438 218.902344 161.417969 213 159.855469 205.164062 " fill-opacity="1" fill-rule="nonzero"/><path fill="#a3320b" d="M 144.339844 215.40625 C 144.441406 216.28125 144.628906 217.136719 144.898438 217.976562 C 146.53125 223.148438 150.78125 226.78125 156.582031 227.035156 C 163.199219 227.335938 165.324219 223.226562 170.617188 222.914062 C 169.792969 222.277344 169 221.597656 168.25 220.875 C 165.839844 221.4375 163.351562 222.15625 160.675781 222.914062 C 151.210938 225.582031 145.820312 217.917969 144.339844 215.414062 " fill-opacity="1" fill-rule="nonzero"/><path fill="#f1c40f" d="M 168.597656 209.613281 C 169.773438 212.347656 171.808594 215.15625 174.339844 215.273438 C 175.1875 215.316406 175.84375 216.707031 176.664062 215.902344 C 177.65625 214.910156 175.738281 214.402344 176.53125 213.175781 C 177.46875 211.746094 176.515625 210.128906 175.664062 208.394531 C 173.859375 209.761719 171.453125 210.382812 168.628906 209.621094 Z M 168.597656 209.613281 " fill-opacity="1" fill-rule="nonzero"/><path fill="#f39c12" d="M 168.597656 209.613281 C 168.964844 210.476562 169.402344 211.300781 169.917969 212.085938 C 172.75 212.457031 175.003906 211.890625 176.773438 210.921875 C 176.476562 210.046875 176.105469 209.207031 175.664062 208.394531 C 173.859375 209.761719 171.453125 210.382812 168.628906 209.621094 Z M 168.597656 209.613281 " fill-opacity="1" fill-rule="nonzero"/><path fill="#f1c40f" d="M 180.707031 186.859375 C 177.097656 187.640625 173.867188 189.125 171.441406 191.546875 C 172.574219 192.34375 173.777344 193.015625 175.050781 193.558594 C 175.847656 193.910156 176.554688 194.386719 177.179688 194.992188 C 177.3125 194.820312 177.441406 194.664062 177.550781 194.527344 C 179.566406 191.914062 181.792969 191.527344 182.761719 189.65625 C 183.152344 188.203125 182.253906 186.523438 180.710938 186.855469 " fill-opacity="1" fill-rule="nonzero"/><path fill="#f1c40f" d="M 173.0625 190.152344 C 172.488281 190.578125 171.945312 191.042969 171.441406 191.546875 C 172.574219 192.34375 173.777344 193.015625 175.050781 193.558594 C 175.847656 193.910156 176.554688 194.386719 177.179688 194.992188 C 177.3125 194.820312 177.441406 194.664062 177.550781 194.527344 C 177.878906 194.105469 178.234375 193.710938 178.617188 193.339844 C 177.8125 192.78125 176.957031 192.3125 176.046875 191.945312 C 174.964844 191.488281 173.972656 190.886719 173.0625 190.144531 " fill-opacity="1" fill-rule="nonzero"/><path fill="#f39c12" d="M 181.652344 84.761719 C 179.789062 84.507812 177.964844 86.230469 178.183594 86.558594 C 178.402344 86.890625 180.785156 86.820312 181.910156 85.382812 C 182.078125 85.164062 182.167969 84.988281 182.136719 84.914062 C 182.105469 84.84375 181.921875 84.785156 181.648438 84.75 " fill-opacity="1" fill-rule="nonzero"/><path fill="#f39c12" d="M 167.628906 89.125 C 165.761719 88.871094 163.941406 90.59375 164.160156 90.921875 C 164.378906 91.253906 166.761719 91.183594 167.882812 89.746094 C 168.050781 89.527344 168.144531 89.351562 168.109375 89.277344 C 168.078125 89.207031 167.894531 89.148438 167.621094 89.113281 " fill-opacity="1" fill-rule="nonzero"/><path fill="#f39c12" d="M 152.867188 96.046875 C 152.203125 96.382812 151.785156 96.496094 151.300781 97.125 C 150.9375 97.597656 150.980469 97.679688 151.558594 97.757812 C 153.421875 98.011719 155.246094 96.289062 155.027344 95.957031 C 154.875 95.714844 153.65625 95.765625 152.871094 96.066406 " fill-opacity="1" fill-rule="nonzero"/><path fill="#f1c40f" d="M 166.804688 93.089844 L 165.042969 103.527344 C 165.027344 103.625 165 103.71875 164.960938 103.808594 C 164.921875 103.898438 164.871094 103.980469 164.808594 104.058594 C 164.746094 104.132812 164.675781 104.203125 164.597656 104.261719 C 164.519531 104.320312 164.433594 104.371094 164.34375 104.40625 C 164.253906 104.445312 164.160156 104.46875 164.0625 104.484375 C 163.964844 104.496094 163.867188 104.5 163.765625 104.488281 C 163.667969 104.476562 163.574219 104.453125 163.484375 104.417969 C 163.390625 104.382812 163.304688 104.335938 163.222656 104.28125 L 155.453125 99.582031 C 157.085938 103.558594 158.707031 107.546875 160.347656 111.519531 C 162.667969 117.125 168.613281 116.441406 173.503906 114.464844 C 173.503906 114.464844 173.558594 114.441406 173.570312 114.4375 L 178.683594 112.355469 C 183.796875 110.273438 187.578125 106.886719 185.300781 101.320312 L 180.414062 89.425781 L 178.148438 98.277344 C 178.101562 98.46875 178.007812 98.636719 177.875 98.78125 C 177.738281 98.925781 177.578125 99.03125 177.390625 99.09375 C 177.199219 99.15625 177.007812 99.171875 176.8125 99.136719 C 176.617188 99.101562 176.445312 99.019531 176.289062 98.898438 L 167.746094 92.703125 C 167.441406 92.855469 167.128906 92.984375 166.804688 93.089844 " fill-opacity="1" fill-rule="nonzero"/><path fill="#f39c12" d="M 155.453125 99.582031 C 157.085938 103.558594 158.707031 107.546875 160.347656 111.519531 C 162.667969 117.125 168.613281 116.441406 173.503906 114.464844 C 173.503906 114.464844 173.558594 114.441406 173.570312 114.4375 L 178.683594 112.355469 C 183.59375 110.359375 187.269531 107.15625 185.539062 101.980469 C 184.527344 104.496094 181.867188 106.296875 178.683594 107.59375 L 173.570312 109.671875 C 173.570312 109.671875 173.5 109.691406 173.503906 109.699219 C 164.839844 113.214844 158.679688 107.472656 155.453125 99.582031 " fill-opacity="1" fill-rule="nonzero"/><path fill="#421100" d="M 163.511719 98.609375 L 161.140625 97.792969 L 160.296875 99.804688 L 163.035156 101.460938 Z M 163.511719 98.609375 " fill-opacity="1" fill-rule="nonzero"/><path fill="#421100" d="M 177.195312 92.609375 L 174.960938 92.257812 L 173.679688 94.136719 L 176.316406 96.046875 Z M 177.195312 92.609375 " fill-opacity="1" fill-rule="nonzero"/><path fill="#f1ccae" d="M 159.628906 162.796875 C 160.054688 163.417969 160.496094 164.019531 160.953125 164.613281 C 161.414062 165.203125 161.890625 165.78125 162.386719 166.34375 C 162.882812 166.90625 163.394531 167.453125 163.921875 167.984375 C 164.449219 168.515625 164.996094 169.03125 165.554688 169.53125 C 166.113281 170.03125 166.6875 170.511719 167.277344 170.976562 C 167.867188 171.441406 168.46875 171.886719 169.085938 172.3125 C 169.699219 172.742188 170.328125 173.152344 170.96875 173.539062 C 171.609375 173.929688 172.261719 174.300781 172.925781 174.652344 C 173.585938 175.003906 174.261719 175.332031 174.945312 175.644531 C 175.628906 175.953125 176.320312 176.242188 177.019531 176.511719 C 177.722656 176.777344 178.429688 177.027344 179.144531 177.25 C 179.859375 177.476562 180.582031 177.679688 181.3125 177.863281 C 182.039062 178.046875 182.773438 178.207031 183.511719 178.34375 C 184.246094 178.480469 184.988281 178.597656 185.734375 178.691406 C 186.480469 178.785156 187.226562 178.855469 187.976562 178.902344 C 188.722656 178.949219 189.472656 178.976562 190.226562 178.980469 C 190.976562 178.980469 191.726562 178.960938 192.476562 178.917969 C 193.226562 178.878906 193.972656 178.8125 194.71875 178.726562 C 195.464844 178.636719 196.207031 178.527344 196.945312 178.394531 C 197.683594 178.265625 198.417969 178.109375 199.148438 177.933594 C 199.875 177.757812 200.601562 177.558594 201.316406 177.339844 C 202.035156 177.117188 202.746094 176.878906 203.449219 176.613281 C 204.152344 176.351562 204.84375 176.066406 205.53125 175.761719 C 206.21875 175.457031 206.894531 175.132812 207.558594 174.789062 C 208.222656 174.441406 208.878906 174.078125 209.523438 173.691406 C 210.167969 173.304688 210.796875 172.902344 211.417969 172.480469 C 212.035156 172.054688 212.644531 171.613281 213.234375 171.15625 C 213.828125 170.695312 214.40625 170.21875 214.96875 169.722656 C 215.53125 169.230469 216.082031 168.71875 216.613281 168.191406 C 217.144531 167.664062 217.660156 167.121094 218.160156 166.5625 C 218.660156 166.003906 219.144531 165.429688 219.605469 164.84375 C 220.070312 164.253906 220.519531 163.652344 220.945312 163.039062 C 223.898438 158.839844 224.113281 152.410156 218.238281 151.308594 C 218.089844 151.277344 217.949219 151.21875 217.824219 151.132812 C 217.695312 151.046875 217.589844 150.9375 217.507812 150.808594 C 217.421875 150.683594 217.363281 150.542969 217.335938 150.394531 C 217.304688 150.242188 217.308594 150.09375 217.335938 149.941406 C 220.773438 132.75 200.058594 124.503906 191.488281 138.222656 C 191.421875 138.390625 191.320312 138.535156 191.1875 138.65625 C 191.082031 138.765625 190.957031 138.847656 190.8125 138.910156 C 190.671875 138.96875 190.523438 139 190.371094 139 C 190.214844 139 190.066406 138.96875 189.925781 138.910156 C 189.78125 138.847656 189.65625 138.765625 189.550781 138.65625 C 189.414062 138.535156 189.316406 138.394531 189.25 138.226562 C 180.6875 124.511719 159.964844 132.746094 163.402344 149.945312 C 163.433594 150.101562 163.433594 150.257812 163.398438 150.410156 C 163.367188 150.566406 163.304688 150.707031 163.210938 150.839844 C 163.121094 150.96875 163.007812 151.074219 162.871094 151.15625 C 162.738281 151.238281 162.589844 151.292969 162.433594 151.316406 C 156.660156 152.871094 156.675781 158.511719 159.617188 162.796875 " fill-opacity="1" fill-rule="nonzero"/><path fill="#c3522b" d="M 163.183594 117.535156 C 155.988281 123.480469 152.898438 131.515625 152.898438 141.09375 C 152.894531 145.917969 153.769531 150.582031 155.527344 155.078125 C 156.429688 151.605469 159.34375 150.011719 160.941406 149.378906 C 158.066406 130.804688 180.207031 121.957031 190.367188 135.722656 C 200.523438 121.957031 222.671875 130.796875 219.796875 149.378906 C 221.390625 150.007812 224.308594 151.605469 225.210938 155.101562 C 226.953125 150.660156 227.816406 146.054688 227.8125 141.285156 C 227.8125 127.789062 222.980469 116.875 210.824219 110.3125 C 210.605469 110.195312 210.441406 110.027344 210.332031 109.804688 C 210.222656 109.585938 210.1875 109.355469 210.222656 109.109375 C 210.933594 104.222656 209.046875 101.558594 207.660156 100.300781 C 206.679688 103.1875 203.421875 105.851562 202.480469 105.84375 C 202.324219 105.84375 202.175781 105.8125 202.035156 105.753906 C 201.894531 105.695312 201.769531 105.609375 201.660156 105.5 C 201.554688 105.390625 201.472656 105.265625 201.414062 105.121094 C 201.355469 104.980469 201.328125 104.832031 201.328125 104.679688 C 201.382812 99.460938 197.351562 97.53125 195.433594 96.910156 C 194.175781 100.265625 191.421875 102.570312 188.304688 104.40625 C 188.363281 109.136719 184.554688 112.464844 179.546875 114.503906 L 174.363281 116.601562 C 170.605469 118.132812 166.480469 118.820312 163.183594 117.523438 " fill-opacity="1" fill-rule="nonzero"/><path fill="#ad4826" d="M 163.183594 117.535156 C 162.738281 117.902344 162.3125 118.277344 161.902344 118.660156 C 165.113281 121.929688 170.460938 121.085938 174.996094 119.257812 C 174.996094 119.257812 175.058594 119.230469 175.070312 119.230469 L 180.835938 116.882812 C 186.617188 114.519531 190.882812 110.6875 188.304688 104.40625 C 188.363281 109.136719 184.554688 112.464844 179.546875 114.503906 L 174.363281 116.601562 C 170.605469 118.132812 166.480469 118.820312 163.183594 117.523438 " fill-opacity="1" fill-rule="nonzero"/><path fill="#c3522b" d="M 170.355469 175.910156 C 168.800781 174.996094 167.316406 173.976562 165.898438 172.859375 C 162.386719 176.179688 147.703125 191.394531 160.484375 202.757812 C 160.578125 202.828125 160.921875 203.085938 161.441406 203.449219 C 161.539062 203.496094 161.628906 203.558594 161.710938 203.632812 C 163.355469 204.753906 166.367188 206.609375 169.230469 207.382812 C 176.648438 209.375 179.867188 198.242188 174.097656 195.6875 C 161.859375 190.234375 165.585938 183.628906 170.359375 175.921875 " fill-opacity="1" fill-rule="nonzero"/><path fill="#ff926b" d="M 174.710938 196 C 174.519531 195.878906 174.320312 195.769531 174.109375 195.675781 C 165.796875 191.972656 164.851562 187.738281 166.589844 182.984375 C 162.410156 189.1875 168.308594 195.742188 174.710938 196 " fill-opacity="1" fill-rule="nonzero"/><path fill="#a3320b" d="M 156.46875 186.304688 C 154.539062 191.59375 154.664062 197.574219 160.488281 202.757812 C 160.582031 202.828125 160.921875 203.085938 161.445312 203.449219 C 161.542969 203.496094 161.632812 203.558594 161.714844 203.632812 C 163.355469 204.753906 166.371094 206.609375 169.234375 207.382812 C 174.648438 208.835938 177.820312 203.304688 176.902344 199.210938 C 176.136719 209.980469 154.640625 204.882812 156.472656 186.316406 " fill-opacity="1" fill-rule="nonzero"/><path fill="#ad4826" d="M 170.355469 175.910156 C 168.800781 174.996094 167.316406 173.976562 165.898438 172.859375 C 165.296875 173.417969 164.394531 174.308594 163.371094 175.460938 C 165 176.757812 166.71875 177.921875 168.527344 178.957031 C 169.09375 177.960938 169.714844 176.945312 170.355469 175.910156 " fill-opacity="1" fill-rule="nonzero"/><path fill="#c3522b" d="M 210.003906 176.078125 C 207.988281 177.234375 205.882812 178.207031 203.695312 178.992188 C 201.503906 179.78125 199.261719 180.367188 196.964844 180.757812 C 194.671875 181.148438 192.359375 181.332031 190.03125 181.316406 C 187.703125 181.296875 185.394531 181.074219 183.105469 180.648438 C 179.355469 179.964844 175.785156 178.757812 172.394531 177.027344 C 169.21875 182.109375 166.59375 186.304688 169.71875 189.988281 C 172.628906 187.050781 176.515625 185.296875 180.890625 184.453125 L 183.792969 182.792969 C 184.136719 182.617188 184.5 182.511719 184.882812 182.480469 C 185.269531 182.449219 185.644531 182.488281 186.011719 182.605469 C 186.378906 182.722656 186.710938 182.902344 187.007812 183.148438 C 187.304688 183.394531 187.542969 183.691406 187.71875 184.03125 C 188.320312 185.203125 189.210938 186.042969 188.800781 187.566406 C 188.59375 188.328125 188.148438 188.90625 187.460938 189.300781 L 184.777344 190.839844 C 184.390625 191.601562 183.507812 192.574219 181.835938 193.738281 C 180.886719 194.339844 180.0625 195.085938 179.363281 195.964844 C 179.09375 196.308594 178.855469 196.6875 178.625 197.039062 C 180.011719 200.007812 179.421875 203.898438 177.394531 206.636719 C 178.324219 208.84375 180.117188 211 178.875 213.722656 C 178.984375 213.929688 179.074219 214.140625 179.136719 214.363281 C 179.199219 214.585938 179.238281 214.8125 179.253906 215.042969 C 179.269531 215.277344 179.257812 215.507812 179.222656 215.734375 C 179.1875 215.964844 179.128906 216.1875 179.046875 216.402344 C 178.960938 216.617188 178.855469 216.824219 178.726562 217.015625 C 178.601562 217.210938 178.453125 217.386719 178.289062 217.550781 C 178.121094 217.710938 177.941406 217.851562 177.742188 217.976562 C 177.546875 218.097656 177.339844 218.199219 177.121094 218.277344 C 176.136719 218.617188 174.949219 218.488281 173.808594 217.542969 C 172.042969 217.324219 170.386719 216.285156 168.996094 214.691406 C 167.480469 212.878906 166.394531 210.84375 165.742188 208.574219 C 164.6875 208.097656 163.660156 207.566406 162.660156 206.980469 C 164.949219 215.179688 170.253906 220.800781 176.722656 223.972656 L 176.851562 224.019531 C 176.96875 224.0625 177.082031 224.117188 177.183594 224.191406 C 185.429688 228.050781 195.464844 227.976562 203.484375 224.191406 C 203.585938 224.113281 203.699219 224.054688 203.820312 224.011719 L 203.914062 223.980469 C 205.949219 223.003906 207.816406 221.769531 209.511719 220.285156 C 211.207031 218.796875 212.667969 217.105469 213.898438 215.21875 C 219.367188 206.675781 219.828125 193.546875 210.003906 176.078125 " fill-opacity="1" fill-rule="nonzero"/><path fill="#a3320b" d="M 162.664062 206.980469 C 164.949219 215.179688 170.253906 220.800781 176.722656 223.972656 L 177.183594 224.191406 C 185.429688 228.050781 195.464844 227.976562 203.484375 224.191406 L 203.914062 223.980469 C 205.949219 223.003906 207.816406 221.769531 209.511719 220.285156 C 211.207031 218.796875 212.667969 217.105469 213.898438 215.21875 C 216.535156 211.101562 218.003906 205.921875 217.726562 199.710938 C 217.019531 214.820312 204.992188 223.917969 190.773438 224.101562 C 179.34375 224.246094 167.269531 217.75 162.664062 206.980469 " fill-opacity="1" fill-rule="nonzero"/><path fill="#ad4826" d="M 166.820312 211.347656 C 166.390625 210.453125 166.03125 209.527344 165.746094 208.574219 C 164.691406 208.097656 163.664062 207.566406 162.664062 206.980469 C 162.953125 208.015625 163.296875 209.03125 163.699219 210.03125 C 164.707031 210.542969 165.746094 210.984375 166.820312 211.347656 M 180.40625 194.839844 C 180.03125 195.1875 179.679688 195.5625 179.363281 195.964844 C 179.09375 196.308594 178.855469 196.6875 178.625 197.039062 C 180.011719 200.007812 179.421875 203.898438 177.394531 206.636719 C 177.796875 207.585938 178.359375 208.53125 178.769531 209.515625 C 180.34375 208.089844 181.519531 206.390625 182.300781 204.417969 C 183.945312 199.960938 182.382812 196.839844 180.40625 194.839844 Z M 172.285156 177.183594 C 169.160156 182.199219 166.617188 186.34375 169.710938 189.988281 C 170.265625 189.429688 170.859375 188.910156 171.484375 188.429688 C 168.464844 183.929688 171.679688 178.195312 172.292969 177.191406 Z M 172.285156 177.183594 " fill-opacity="1" fill-rule="nonzero"/><path fill="#a3320b" d="M 210.003906 176.078125 C 207.988281 177.234375 205.882812 178.207031 203.695312 178.992188 C 201.503906 179.78125 199.261719 180.367188 196.964844 180.757812 C 194.671875 181.148438 192.359375 181.332031 190.03125 181.316406 C 187.703125 181.296875 185.394531 181.074219 183.105469 180.648438 C 179.355469 179.964844 175.785156 178.757812 172.394531 177.027344 C 171.742188 178.070312 171.113281 179.074219 170.554688 180.042969 C 174.160156 181.851562 177.949219 183.125 181.914062 183.867188 L 183.792969 182.792969 C 184.136719 182.617188 184.5 182.511719 184.882812 182.480469 C 185.269531 182.449219 185.644531 182.488281 186.011719 182.605469 C 186.378906 182.722656 186.710938 182.902344 187.007812 183.148438 C 187.304688 183.394531 187.542969 183.691406 187.71875 184.03125 C 187.820312 184.226562 187.929688 184.410156 188.035156 184.589844 C 188.808594 184.628906 189.585938 184.652344 190.371094 184.652344 C 194.097656 184.667969 197.765625 184.214844 201.378906 183.296875 C 204.988281 182.378906 208.425781 181.023438 211.691406 179.230469 C 211.167969 178.195312 210.605469 177.144531 210.003906 176.078125 " fill-opacity="1" fill-rule="nonzero"/><path fill="#f1ccae" d="M 188.46875 185.324219 C 188.910156 186.023438 189.019531 186.769531 188.800781 187.566406 C 188.59375 188.328125 188.148438 188.90625 187.460938 189.300781 L 184.777344 190.839844 C 184.390625 191.601562 183.507812 192.574219 181.835938 193.738281 C 180.886719 194.339844 180.0625 195.085938 179.363281 195.964844 C 179.09375 196.308594 178.855469 196.6875 178.625 197.039062 C 180.011719 200.007812 179.421875 203.898438 177.394531 206.636719 C 178.324219 208.84375 180.117188 211 178.875 213.722656 C 178.984375 213.929688 179.074219 214.140625 179.136719 214.363281 C 179.199219 214.585938 179.238281 214.8125 179.253906 215.042969 C 179.269531 215.277344 179.257812 215.507812 179.222656 215.734375 C 179.1875 215.964844 179.128906 216.1875 179.046875 216.402344 C 178.960938 216.617188 178.855469 216.824219 178.726562 217.015625 C 178.601562 217.210938 178.453125 217.386719 178.289062 217.550781 C 178.121094 217.710938 177.941406 217.851562 177.742188 217.976562 C 177.546875 218.097656 177.339844 218.199219 177.121094 218.277344 C 176.136719 218.617188 174.949219 218.488281 173.808594 217.542969 C 173.691406 217.53125 173.574219 217.511719 173.453125 217.492188 C 174.742188 220.386719 176.585938 222.875 178.980469 224.957031 C 180.75 225.632812 182.570312 226.148438 184.433594 226.5 C 186.296875 226.851562 188.179688 227.035156 190.074219 227.050781 C 191.972656 227.066406 193.855469 226.914062 195.726562 226.59375 C 197.597656 226.273438 199.421875 225.789062 201.207031 225.140625 C 206.019531 221.152344 209.164062 214.613281 209.164062 207.226562 C 209.164062 195.078125 200.671875 185.234375 190.210938 185.234375 C 189.628906 185.230469 189.046875 185.261719 188.46875 185.324219 " fill-opacity="1" fill-rule="nonzero"/><path fill="#f1ccae" d="M 174.765625 219.984375 C 175.910156 221.863281 177.3125 223.519531 178.980469 224.957031 C 180.308594 225.472656 181.671875 225.894531 183.0625 226.21875 L 183.394531 226.296875 L 183.417969 226.296875 C 184.109375 226.449219 184.8125 226.578125 185.523438 226.683594 C 186.109375 226.769531 186.691406 226.84375 187.277344 226.898438 L 187.300781 226.898438 L 187.632812 226.929688 L 187.664062 226.929688 L 188.003906 226.972656 L 188.054688 226.972656 C 188.503906 227.007812 188.957031 227.027344 189.414062 227.042969 L 190.183594 227.042969 C 190.628906 227.042969 191.085938 227.042969 191.519531 227.019531 L 191.59375 227.019531 L 191.894531 227.007812 L 191.976562 227.007812 L 192.253906 226.992188 L 192.351562 226.992188 C 192.785156 226.964844 193.214844 226.929688 193.644531 226.886719 L 193.726562 226.886719 L 194 226.855469 L 194.105469 226.855469 L 194.367188 226.828125 L 194.484375 226.8125 L 194.746094 226.773438 L 194.820312 226.773438 C 195.140625 226.730469 195.453125 226.683594 195.769531 226.628906 L 195.820312 226.628906 L 196.09375 226.578125 L 196.207031 226.558594 L 196.582031 226.488281 L 196.828125 226.4375 L 196.984375 226.402344 L 197.191406 226.363281 L 197.535156 226.285156 L 197.765625 226.230469 L 197.910156 226.195312 L 198.128906 226.140625 L 198.28125 226.101562 L 198.496094 226.046875 L 198.65625 226.003906 L 198.871094 225.949219 L 199.039062 225.898438 L 199.230469 225.84375 L 199.566406 225.742188 L 199.796875 225.667969 L 199.921875 225.628906 L 200.152344 225.554688 L 200.503906 225.4375 L 200.660156 225.382812 L 200.855469 225.316406 L 201.03125 225.25 L 201.222656 225.183594 C 202.925781 223.761719 204.363281 222.109375 205.539062 220.230469 C 201.269531 222.714844 196.183594 224.074219 190.777344 224.140625 C 187.972656 224.152344 185.214844 223.808594 182.5 223.101562 C 179.785156 222.398438 177.207031 221.359375 174.765625 219.984375 " fill-opacity="1" fill-rule="nonzero"/><path fill="#d1a179" d="M 174.765625 219.984375 C 175.910156 221.863281 177.3125 223.519531 178.980469 224.957031 C 180.75 225.632812 182.570312 226.148438 184.433594 226.5 C 186.296875 226.851562 188.179688 227.035156 190.074219 227.050781 C 191.972656 227.066406 193.855469 226.914062 195.726562 226.59375 C 197.597656 226.273438 199.421875 225.789062 201.207031 225.140625 C 202.925781 223.703125 204.375 222.035156 205.554688 220.136719 C 203.296875 221.414062 200.917969 222.390625 198.414062 223.0625 C 195.90625 223.734375 193.355469 224.078125 190.761719 224.101562 C 187.960938 224.117188 185.207031 223.777344 182.496094 223.078125 C 179.785156 222.382812 177.207031 221.347656 174.765625 219.984375 M 179.28125 212.347656 C 179.21875 212.824219 179.089844 213.285156 178.886719 213.722656 L 178.914062 213.773438 C 179.144531 213.324219 179.265625 212.851562 179.28125 212.347656 Z M 178.207031 205.351562 C 177.972656 205.800781 177.707031 206.226562 177.40625 206.632812 C 177.914062 207.832031 178.679688 209.03125 179.070312 210.3125 C 179.691406 208.472656 178.980469 206.882812 178.203125 205.351562 Z M 179.257812 196.117188 C 179.03125 196.414062 178.832031 196.742188 178.632812 197.042969 C 178.945312 197.71875 179.15625 198.421875 179.273438 199.15625 C 179.429688 198.140625 179.425781 197.128906 179.253906 196.117188 Z M 188.476562 185.320312 L 188.476562 185.347656 L 188.492188 185.316406 Z M 188.476562 185.320312 " fill-opacity="1" fill-rule="nonzero"/><path fill="#d1a179" d="M 180.40625 194.839844 C 180.03125 195.1875 179.679688 195.5625 179.363281 195.964844 C 179.09375 196.308594 178.855469 196.6875 178.625 197.039062 C 180.011719 200.007812 179.421875 203.898438 177.394531 206.636719 C 177.796875 207.585938 178.359375 208.53125 178.769531 209.515625 C 180.34375 208.089844 181.519531 206.390625 182.300781 204.417969 C 183.941406 199.949219 182.378906 196.832031 180.40625 194.820312 " fill-opacity="1" fill-rule="nonzero"/><path fill="#c3522b" d="M 219.308594 212.457031 C 219.164062 213.171875 220.496094 213.53125 220.65625 212.597656 C 222.398438 202.5 239.933594 204.820312 235.773438 217.980469 C 234.140625 223.148438 229.890625 226.785156 224.089844 227.039062 C 217.425781 227.339844 215.332031 223.191406 209.976562 222.910156 C 212.300781 221.097656 214.261719 218.953125 215.855469 216.476562 C 218.21875 212.738281 219.578125 208.664062 219.941406 204.261719 C 220.929688 204.914062 221.683594 205.769531 222.203125 206.832031 C 220.609375 208.390625 219.644531 210.269531 219.308594 212.472656 " fill-opacity="1" fill-rule="nonzero"/><path fill="#a3320b" d="M 235.773438 217.976562 C 234.140625 223.148438 229.890625 226.78125 224.089844 227.035156 C 217.425781 227.335938 215.332031 223.1875 209.976562 222.90625 C 210.84375 222.226562 211.664062 221.496094 212.441406 220.714844 C 218.230469 220.832031 219.75 224.175781 224.175781 224.214844 C 231.019531 224.273438 235.773438 217.976562 235.773438 217.976562 " fill-opacity="1" fill-rule="nonzero"/><path fill="#f1ccae" d="M 221.007812 211.246094 C 224.007812 202.742188 239.746094 205.441406 235.773438 217.976562 C 235.101562 220.179688 233.929688 222.078125 232.265625 223.675781 C 223.296875 232.140625 217.261719 221.855469 221.007812 211.238281 " fill-opacity="1" fill-rule="nonzero"/><path fill="#d1a179" d="M 235.773438 217.976562 C 235.101562 220.179688 233.929688 222.078125 232.265625 223.675781 C 227.3125 228.347656 223.253906 227.304688 221.246094 223.644531 C 222.1875 224.011719 223.164062 224.199219 224.175781 224.207031 C 231.019531 224.273438 235.773438 217.976562 235.773438 217.976562 " fill-opacity="1" fill-rule="nonzero"/><path fill="#421100" d="M 170.425781 139.253906 C 175.003906 133.328125 183.132812 137.351562 183.132812 145.660156 C 183.132812 153.96875 175.011719 157.992188 170.425781 152.066406 C 167.671875 148.496094 167.671875 142.828125 170.425781 139.253906 " fill-opacity="1" fill-rule="nonzero"/><path fill="#421100" d="M 204.988281 136.441406 C 211.511719 136.441406 214.796875 146.25 210.304688 152.066406 C 205.726562 157.992188 197.601562 153.972656 197.601562 145.660156 C 197.601562 141.101562 200.484375 136.441406 204.988281 136.441406 " fill-opacity="1" fill-rule="nonzero"/><path fill="#421100" d="M 194.972656 153.515625 C 195.769531 154.816406 193.792969 156.027344 192.992188 154.71875 C 191.890625 152.933594 188.84375 152.933594 187.742188 154.71875 C 186.9375 156.023438 184.960938 154.808594 185.757812 153.515625 C 187.765625 150.25 192.980469 150.273438 194.972656 153.515625 " fill-opacity="1" fill-rule="nonzero"/><path fill="#421100" d="M 186.101562 160.492188 C 189.75 161.226562 194.671875 161.019531 198.015625 159.367188 C 209.0625 153.902344 210.175781 166.398438 201.605469 171.5625 C 195.441406 175.269531 185.234375 175.269531 179.070312 171.5625 C 170.496094 166.40625 171.601562 153.902344 182.65625 159.367188 C 183.757812 159.890625 184.90625 160.265625 186.101562 160.492188 " fill-opacity="1" fill-rule="nonzero"/><path fill="#421100" d="M 208.460938 140.671875 C 205.214844 136.472656 199.925781 139.679688 199.925781 145.660156 C 199.925781 151.644531 205.21875 154.847656 208.460938 150.648438 C 210.566406 147.929688 210.566406 143.394531 208.460938 140.671875 " fill-opacity="1" fill-rule="nonzero"/><path fill="#421100" d="M 175.746094 138.765625 C 171.265625 138.765625 168.917969 146.316406 172.265625 150.648438 C 175.507812 154.847656 180.800781 151.644531 180.800781 145.660156 C 180.800781 142.386719 178.875 138.761719 175.746094 138.761719 " fill-opacity="1" fill-rule="nonzero"/><path fill="#ffffff" d="M 190.335938 163.210938 C 187.417969 163.210938 184.171875 162.703125 181.628906 161.445312 C 178.472656 159.882812 175.65625 159.703125 175.703125 162.628906 C 175.804688 162.722656 178.550781 165.277344 184.847656 166.40625 C 184.847656 166.40625 179.578125 166.53125 176.085938 164.605469 C 176.480469 165.648438 177.035156 166.597656 177.753906 167.449219 C 178.472656 168.304688 179.3125 169.015625 180.273438 169.582031 C 185.722656 172.859375 194.957031 172.859375 200.402344 169.582031 C 201.363281 169.011719 202.199219 168.296875 202.917969 167.441406 C 203.636719 166.589844 204.191406 165.640625 204.589844 164.597656 C 201.09375 166.527344 195.824219 166.398438 195.824219 166.398438 C 202.222656 165.25 204.957031 162.632812 204.972656 162.617188 C 204.972656 161.65625 204.652344 160.898438 203.984375 160.5625 C 203.050781 160.09375 201.441406 160.261719 199.042969 161.4375 C 196.5 162.695312 193.253906 163.203125 190.335938 163.199219 " fill-opacity="1" fill-rule="nonzero"/><path fill="#d1a179" d="M 230.089844 138.96875 C 230.117188 139.734375 230.136719 140.511719 230.136719 141.292969 C 230.136719 145.003906 229.636719 148.644531 228.632812 152.214844 C 230.390625 150.78125 231.640625 148.175781 232.164062 145.617188 C 232.402344 144.511719 232.484375 143.394531 232.40625 142.261719 C 232.375 141.40625 232.140625 140.605469 231.703125 139.863281 C 231.527344 139.585938 231.296875 139.367188 231.007812 139.207031 C 230.71875 139.046875 230.410156 138.964844 230.078125 138.964844 " fill-opacity="1" fill-rule="nonzero"/><path fill="#a3320b" d="M 229.03125 130.683594 C 229.503906 132.792969 229.816406 134.925781 229.976562 137.085938 C 230.648438 137.054688 231.277344 137.199219 231.871094 137.507812 C 232.460938 137.820312 232.933594 138.261719 233.285156 138.828125 C 233.902344 139.835938 234.242188 140.929688 234.300781 142.105469 C 234.390625 143.417969 234.300781 144.71875 234.019531 146.003906 C 233.242188 149.789062 231.011719 153.683594 227.800781 154.863281 C 227.347656 156.132812 226.835938 157.367188 226.261719 158.570312 C 231.945312 156.011719 234.882812 150.066406 235.589844 144.277344 C 235.84375 142.265625 235.816406 140.257812 235.511719 138.253906 C 235.277344 136.558594 234.738281 134.96875 233.902344 133.476562 C 232.769531 131.574219 231.113281 130.453125 229.03125 130.699219 " fill-opacity="1" fill-rule="nonzero"/><path fill="#d1a179" d="M 152.152344 152.304688 C 151.101562 148.640625 150.574219 144.902344 150.574219 141.082031 C 150.574219 140.363281 150.589844 139.65625 150.625 138.957031 C 150.289062 138.953125 149.96875 139.027344 149.671875 139.1875 C 149.375 139.347656 149.136719 139.574219 148.957031 139.859375 C 148.519531 140.597656 148.285156 141.398438 148.253906 142.257812 C 148.175781 143.386719 148.257812 144.503906 148.496094 145.613281 C 149.039062 148.238281 150.332031 150.910156 152.152344 152.316406 " fill-opacity="1" fill-rule="nonzero"/><path fill="#a3320b" d="M 154.546875 158.601562 C 153.964844 157.386719 153.445312 156.144531 152.988281 154.875 C 149.714844 153.753906 147.441406 149.808594 146.652344 145.976562 C 146.375 144.6875 146.28125 143.390625 146.371094 142.078125 C 146.4375 140.910156 146.777344 139.828125 147.390625 138.828125 C 147.75 138.25 148.234375 137.804688 148.839844 137.496094 C 149.445312 137.183594 150.089844 137.046875 150.769531 137.085938 C 150.960938 134.925781 151.34375 132.800781 151.921875 130.710938 C 149.707031 130.324219 147.953125 131.460938 146.773438 133.445312 C 145.933594 134.9375 145.394531 136.53125 145.160156 138.222656 C 144.855469 140.226562 144.828125 142.238281 145.085938 144.25 C 145.796875 150.097656 148.773438 156.085938 154.546875 158.601562 " fill-opacity="1" fill-rule="nonzero"/><path fill="#f1ccae" d="M 159.574219 210.992188 C 156.5625 202.492188 140.558594 205.171875 144.53125 217.710938 C 145.207031 219.910156 146.375 221.8125 148.042969 223.40625 C 157.007812 231.875 163.328125 221.609375 159.585938 210.988281 " fill-opacity="1" fill-rule="nonzero"/><path fill="#d1a179" d="M 143.917969 214.640625 C 144.050781 216.304688 144.472656 217.886719 145.179688 219.398438 C 145.886719 220.90625 146.835938 222.246094 148.03125 223.414062 C 153.054688 228.15625 157.242188 227.011719 159.300781 223.238281 C 149.113281 225.128906 144.0625 214.933594 143.917969 214.640625 " fill-opacity="1" fill-rule="nonzero"/><path fill="#f1ccae" d="M 236.074219 166.617188 C 238.242188 168.253906 238.109375 172.058594 235.773438 175.117188 C 233.441406 178.175781 229.804688 179.316406 227.652344 177.6875 C 225.5 176.058594 225.617188 172.242188 227.953125 169.1875 C 230.289062 166.128906 233.921875 164.988281 236.074219 166.617188 " fill-opacity="1" fill-rule="nonzero"/><path fill="#58a906" d="M 169.472656 98.816406 C 170.777344 98.214844 172.808594 99.925781 174.007812 102.601562 C 175.210938 105.277344 175.125 107.910156 173.824219 108.496094 C 172.519531 109.082031 170.484375 107.382812 169.28125 104.710938 C 168.082031 102.035156 168.167969 99.398438 169.472656 98.816406 " fill-opacity="1" fill-rule="evenodd"/><path fill="#d73c2c" d="M 162.132812 107.09375 C 162.78125 106.742188 163.894531 107.535156 164.617188 108.867188 C 165.339844 110.195312 165.398438 111.5625 164.75 111.910156 C 164.101562 112.253906 162.988281 111.464844 162.269531 110.132812 C 161.546875 108.800781 161.484375 107.433594 162.132812 107.09375 " fill-opacity="1" fill-rule="evenodd"/><path fill="#d73c2c" d="M 180.992188 98.101562 C 181.699219 97.878906 182.640625 98.867188 183.101562 100.308594 C 183.558594 101.753906 183.359375 103.097656 182.65625 103.324219 C 181.949219 103.546875 181.007812 102.554688 180.550781 101.113281 C 180.089844 99.671875 180.289062 98.324219 180.992188 98.113281 " fill-opacity="1" fill-rule="evenodd"/><path fill="#ffffff" d="M 170.230469 99.429688 C 170.472656 99.429688 170.683594 99.515625 170.855469 99.6875 C 171.027344 99.859375 171.113281 100.066406 171.113281 100.308594 C 171.117188 100.550781 171.03125 100.757812 170.859375 100.929688 C 170.6875 101.101562 170.476562 101.1875 170.234375 101.1875 C 169.992188 101.1875 169.78125 101.101562 169.609375 100.929688 C 169.4375 100.761719 169.351562 100.550781 169.351562 100.308594 C 169.351562 100.066406 169.4375 99.859375 169.609375 99.6875 C 169.78125 99.515625 169.988281 99.429688 170.234375 99.429688 " fill-opacity="1" fill-rule="evenodd"/><path fill="#ffffff" d="M 181.476562 99.046875 C 181.683594 99.046875 181.859375 99.121094 182.003906 99.265625 C 182.148438 99.40625 182.21875 99.582031 182.21875 99.785156 C 182.21875 99.988281 182.144531 100.164062 182 100.308594 C 181.855469 100.453125 181.679688 100.523438 181.476562 100.523438 C 181.273438 100.523438 181.097656 100.449219 180.953125 100.304688 C 180.808594 100.160156 180.738281 99.984375 180.738281 99.78125 C 180.738281 99.578125 180.8125 99.40625 180.957031 99.261719 C 181.101562 99.117188 181.273438 99.046875 181.476562 99.046875 " fill-opacity="1" fill-rule="evenodd"/><path fill="#ffffff" d="M 162.789062 107.621094 C 162.992188 107.621094 163.167969 107.691406 163.3125 107.835938 C 163.457031 107.980469 163.527344 108.15625 163.527344 108.359375 C 163.527344 108.5625 163.457031 108.734375 163.3125 108.878906 C 163.167969 109.023438 162.992188 109.097656 162.789062 109.097656 C 162.582031 109.097656 162.410156 109.023438 162.265625 108.878906 C 162.121094 108.734375 162.046875 108.5625 162.046875 108.359375 C 162.046875 108.15625 162.121094 107.980469 162.265625 107.835938 C 162.410156 107.691406 162.582031 107.621094 162.789062 107.621094 " fill-opacity="1" fill-rule="evenodd"/><path fill="#ffffff" d="M 175.746094 142.058594 C 176.222656 142.058594 176.683594 142.152344 177.125 142.332031 C 177.570312 142.515625 177.957031 142.777344 178.296875 143.113281 C 178.636719 143.449219 178.898438 143.839844 179.078125 144.28125 C 179.261719 144.722656 179.355469 145.179688 179.355469 145.65625 C 179.355469 146.136719 179.261719 146.59375 179.078125 147.035156 C 178.898438 147.476562 178.636719 147.863281 178.296875 148.203125 C 177.957031 148.539062 177.570312 148.800781 177.125 148.980469 C 176.683594 149.164062 176.222656 149.257812 175.746094 149.257812 C 175.265625 149.257812 174.804688 149.164062 174.363281 148.980469 C 173.921875 148.800781 173.53125 148.539062 173.191406 148.203125 C 172.855469 147.863281 172.59375 147.476562 172.410156 147.035156 C 172.226562 146.59375 172.136719 146.136719 172.136719 145.65625 C 172.136719 145.179688 172.226562 144.722656 172.410156 144.28125 C 172.59375 143.839844 172.855469 143.449219 173.191406 143.113281 C 173.53125 142.777344 173.921875 142.515625 174.363281 142.332031 C 174.804688 142.152344 175.265625 142.058594 175.746094 142.058594 " fill-opacity="1" fill-rule="evenodd"/><path fill="#ffffff" d="M 204.988281 142.058594 C 205.464844 142.058594 205.925781 142.152344 206.371094 142.332031 C 206.8125 142.515625 207.203125 142.777344 207.539062 143.113281 C 207.878906 143.449219 208.140625 143.839844 208.324219 144.28125 C 208.507812 144.722656 208.597656 145.179688 208.597656 145.65625 C 208.597656 146.136719 208.507812 146.59375 208.324219 147.035156 C 208.140625 147.476562 207.878906 147.863281 207.539062 148.203125 C 207.203125 148.539062 206.8125 148.800781 206.371094 148.980469 C 205.925781 149.164062 205.464844 149.257812 204.988281 149.257812 C 204.507812 149.257812 204.046875 149.164062 203.605469 148.980469 C 203.164062 148.800781 202.773438 148.539062 202.433594 148.203125 C 202.097656 147.863281 201.835938 147.476562 201.652344 147.035156 C 201.46875 146.59375 201.378906 146.136719 201.378906 145.65625 C 201.378906 145.179688 201.46875 144.722656 201.652344 144.28125 C 201.835938 143.839844 202.097656 143.449219 202.433594 143.113281 C 202.773438 142.777344 203.164062 142.515625 203.605469 142.332031 C 204.046875 142.152344 204.507812 142.058594 204.988281 142.058594 " fill-opacity="1" fill-rule="evenodd"/><path fill="#ffffff" d="M 207.910156 139.78125 C 207.769531 139.78125 207.636719 139.808594 207.503906 139.863281 C 207.375 139.917969 207.257812 139.992188 207.160156 140.089844 C 207.058594 140.191406 206.984375 140.304688 206.929688 140.433594 C 206.875 140.566406 206.847656 140.699219 206.847656 140.839844 C 206.847656 140.980469 206.875 141.117188 206.929688 141.246094 C 206.980469 141.375 207.058594 141.492188 207.15625 141.589844 C 207.257812 141.691406 207.371094 141.765625 207.503906 141.820312 C 207.632812 141.875 207.769531 141.898438 207.910156 141.898438 C 208.050781 141.898438 208.1875 141.871094 208.316406 141.820312 C 208.445312 141.765625 208.5625 141.6875 208.660156 141.589844 C 208.761719 141.488281 208.835938 141.375 208.890625 141.246094 C 208.945312 141.113281 208.972656 140.980469 208.972656 140.839844 C 208.972656 140.699219 208.945312 140.5625 208.890625 140.433594 C 208.835938 140.304688 208.761719 140.191406 208.660156 140.09375 C 208.5625 139.992188 208.445312 139.917969 208.316406 139.863281 C 208.1875 139.808594 208.050781 139.78125 207.910156 139.78125 " fill-opacity="1" fill-rule="evenodd"/><path fill="#ffffff" d="M 173.089844 139.78125 C 172.949219 139.78125 172.8125 139.808594 172.679688 139.863281 C 172.550781 139.917969 172.4375 139.992188 172.335938 140.089844 C 172.234375 140.191406 172.160156 140.304688 172.105469 140.433594 C 172.050781 140.566406 172.023438 140.699219 172.023438 140.839844 C 172.023438 140.980469 172.050781 141.117188 172.105469 141.246094 C 172.15625 141.375 172.234375 141.492188 172.335938 141.589844 C 172.433594 141.691406 172.550781 141.765625 172.679688 141.820312 C 172.808594 141.875 172.945312 141.898438 173.085938 141.898438 C 173.226562 141.898438 173.363281 141.871094 173.492188 141.820312 C 173.625 141.765625 173.738281 141.6875 173.835938 141.589844 C 173.9375 141.488281 174.015625 141.375 174.066406 141.246094 C 174.121094 141.113281 174.148438 140.980469 174.148438 140.839844 C 174.148438 140.699219 174.121094 140.5625 174.066406 140.433594 C 174.011719 140.304688 173.933594 140.191406 173.835938 140.09375 C 173.738281 139.996094 173.621094 139.917969 173.492188 139.863281 C 173.363281 139.808594 173.230469 139.785156 173.089844 139.78125 " fill-opacity="1" fill-rule="evenodd"/><path fill="#ad4826" d="M 227.632812 137.046875 C 227.015625 141.320312 224.84375 147.492188 223.265625 151.652344 C 224.226562 152.628906 224.871094 153.785156 225.207031 155.109375 C 226.945312 150.667969 227.8125 146.0625 227.804688 141.292969 C 227.804688 139.847656 227.75 138.433594 227.632812 137.046875 " fill-opacity="1" fill-rule="nonzero"/><path fill="#d1a179" d="M 201.605469 171.5625 C 195.441406 175.269531 185.234375 175.269531 179.070312 171.5625 C 178.476562 171.207031 177.914062 170.804688 177.386719 170.363281 C 173.78125 169.015625 170.464844 167.160156 167.4375 164.792969 C 164.40625 162.425781 161.808594 159.65625 159.636719 156.484375 C 159.144531 155.773438 158.734375 155.011719 158.40625 154.210938 C 157.046875 156.652344 157.722656 160.019531 159.636719 162.800781 C 160.0625 163.417969 160.503906 164.023438 160.964844 164.617188 C 161.421875 165.207031 161.902344 165.785156 162.398438 166.347656 C 162.890625 166.910156 163.402344 167.457031 163.929688 167.988281 C 164.460938 168.519531 165.003906 169.035156 165.5625 169.535156 C 166.121094 170.03125 166.695312 170.515625 167.285156 170.976562 C 167.875 171.441406 168.476562 171.890625 169.09375 172.316406 C 169.707031 172.746094 170.335938 173.152344 170.976562 173.542969 C 171.617188 173.933594 172.269531 174.304688 172.933594 174.65625 C 173.597656 175.003906 174.269531 175.335938 174.953125 175.644531 C 175.636719 175.957031 176.328125 176.246094 177.03125 176.511719 C 177.730469 176.78125 178.4375 177.027344 179.152344 177.253906 C 179.871094 177.480469 180.59375 177.683594 181.320312 177.867188 C 182.046875 178.046875 182.78125 178.207031 183.519531 178.347656 C 184.257812 178.484375 185 178.601562 185.742188 178.691406 C 186.488281 178.785156 187.234375 178.855469 187.984375 178.90625 C 188.734375 178.953125 189.484375 178.980469 190.234375 178.980469 C 190.984375 178.984375 191.734375 178.964844 192.484375 178.921875 C 193.234375 178.878906 193.980469 178.816406 194.726562 178.726562 C 195.472656 178.640625 196.214844 178.53125 196.953125 178.398438 C 197.691406 178.265625 198.425781 178.113281 199.15625 177.9375 C 199.886719 177.761719 200.609375 177.5625 201.328125 177.339844 C 202.042969 177.121094 202.753906 176.878906 203.457031 176.617188 C 204.160156 176.355469 204.855469 176.070312 205.539062 175.765625 C 206.226562 175.460938 206.902344 175.136719 207.566406 174.789062 C 208.234375 174.445312 208.886719 174.078125 209.53125 173.695312 C 210.175781 173.308594 210.808594 172.90625 211.425781 172.480469 C 212.046875 172.058594 212.652344 171.617188 213.246094 171.160156 C 213.835938 170.699219 214.414062 170.222656 214.976562 169.726562 C 215.542969 169.234375 216.089844 168.722656 216.621094 168.195312 C 217.15625 167.667969 217.671875 167.125 218.171875 166.566406 C 218.667969 166.007812 219.152344 165.433594 219.617188 164.84375 C 220.082031 164.257812 220.527344 163.65625 220.957031 163.042969 C 222.871094 160.3125 223.636719 156.648438 222.332031 154.109375 C 221.984375 155.039062 221.523438 155.914062 220.957031 156.726562 C 218.773438 159.839844 216.175781 162.5625 213.164062 164.890625 C 210.148438 167.214844 206.855469 169.042969 203.285156 170.371094 C 202.761719 170.816406 202.203125 171.214844 201.613281 171.570312 " fill-opacity="1" fill-rule="nonzero"/><path fill="#ad4826" d="M 153.109375 137.007812 C 153.710938 141.28125 155.898438 147.453125 157.472656 151.617188 C 156.515625 152.59375 155.867188 153.746094 155.53125 155.070312 C 153.796875 150.628906 152.929688 146.023438 152.9375 141.257812 C 152.9375 139.8125 152.992188 138.394531 153.109375 137.007812 " fill-opacity="1" fill-rule="nonzero"/><path fill="#ff926b" d="M 206.78125 102.074219 C 208.09375 103.445312 209.488281 105.921875 209.078125 110.105469 C 209.054688 110.347656 209.105469 110.574219 209.226562 110.785156 C 209.34375 111 209.515625 111.15625 209.734375 111.261719 C 220.773438 116.59375 226.171875 125.65625 227.632812 137.050781 C 226.683594 125.523438 221.671875 116.183594 210.816406 110.324219 C 210.601562 110.210938 210.4375 110.039062 210.328125 109.820312 C 210.214844 109.601562 210.179688 109.371094 210.214844 109.125 C 210.929688 104.238281 209.039062 101.574219 207.652344 100.316406 C 207.433594 100.9375 207.144531 101.519531 206.785156 102.070312 " fill-opacity="1" fill-rule="nonzero"/><path fill="#ff926b" d="M 201.320312 104.695312 C 201.375 99.480469 197.339844 97.546875 195.425781 96.925781 C 195.175781 97.597656 194.859375 98.238281 194.480469 98.847656 C 196.550781 99.5625 199.894531 101.4375 200.046875 106.101562 C 200.054688 106.257812 200.089844 106.402344 200.152344 106.542969 C 200.21875 106.679688 200.304688 106.800781 200.417969 106.90625 C 200.53125 107.007812 200.660156 107.089844 200.804688 107.140625 C 200.949219 107.195312 201.097656 107.214844 201.25 107.210938 C 201.773438 107.1875 202.992188 106.308594 204.105469 105.007812 C 203.410156 105.546875 202.804688 105.863281 202.476562 105.863281 C 202.320312 105.863281 202.175781 105.832031 202.03125 105.773438 C 201.890625 105.710938 201.765625 105.628906 201.660156 105.519531 C 201.550781 105.410156 201.46875 105.28125 201.410156 105.140625 C 201.351562 105 201.324219 104.851562 201.328125 104.695312 " fill-opacity="1" fill-rule="evenodd"/><g fill="#421100" fill-opacity="1"><g transform="translate(77.180485, 267.381047)"><g><path d="M 9.507812 -3.292969 C 9.507812 -5.328125 9.398438 -7.363281 9.398438 -9.359375 C 9.398438 -9.914062 9.359375 -12.652344 9.765625 -12.914062 C 11.136719 -12.914062 10.878906 -5.773438 15.871094 -5.773438 C 21.496094 -5.773438 20.496094 -12.949219 22.308594 -12.949219 C 22.382812 -12.429688 22.570312 -11.988281 22.570312 -11.433594 C 22.570312 -8.695312 22.421875 -5.957031 22.421875 -3.21875 C 22.421875 -1.554688 22.828125 -0.738281 24.601562 -0.738281 C 25.824219 -0.738281 26.785156 -0.59375 27.636719 -1.554688 C 29.597656 -3.773438 29.746094 -9.0625 29.746094 -11.949219 C 29.746094 -12.765625 29.710938 -13.542969 29.710938 -14.355469 C 29.710938 -17.5 29.636719 -21.867188 28.191406 -24.675781 C 27.601562 -25.859375 26.601562 -26.304688 25.304688 -26.304688 C 24.046875 -26.304688 22.53125 -26.417969 21.605469 -25.378906 C 20.015625 -23.53125 18.164062 -13.875 15.722656 -13.875 C 13.726562 -13.875 11.914062 -24.898438 9.546875 -25.972656 C 8.992188 -26.230469 8.433594 -26.304688 7.84375 -26.304688 C 7.03125 -26.304688 6.179688 -26.230469 5.402344 -25.972656 C 4.550781 -25.714844 3.996094 -25.046875 3.625 -24.269531 C 2.589844 -22.085938 2.40625 -16.351562 2.40625 -13.835938 C 2.40625 -11.285156 2.40625 -2.480469 4.773438 -1.109375 C 5.550781 -0.664062 6.402344 -0.703125 7.25 -0.703125 C 9.101562 -0.703125 9.507812 -1.554688 9.507812 -3.292969 Z M 9.507812 -3.292969 "/></g></g></g><g fill="#421100" fill-opacity="1"><g transform="translate(106.999077, 267.381047)"><g><path d="M 13.613281 -26.898438 C 6.253906 -26.898438 0.777344 -20.71875 0.777344 -13.503906 C 0.777344 -5.808594 6.660156 -0.0742188 14.316406 -0.0742188 C 21.605469 -0.0742188 27.304688 -6.363281 27.304688 -13.503906 C 27.304688 -21.3125 21.3125 -26.898438 13.613281 -26.898438 Z M 14.355469 -5.992188 C 10.324219 -5.992188 8.472656 -8.992188 8.472656 -12.726562 C 8.472656 -16.5 9.359375 -20.976562 14.023438 -20.976562 C 18.792969 -20.976562 19.570312 -16.539062 19.570312 -12.726562 C 19.570312 -9.621094 17.90625 -5.992188 14.355469 -5.992188 Z M 14.355469 -5.992188 "/></g></g></g><g fill="#421100" fill-opacity="1"><g transform="translate(132.748105, 267.381047)"><g><path d="M 13.023438 -9.914062 C 10.46875 -11.097656 11.023438 -26.269531 6.253906 -26.269531 C 4.328125 -26.269531 2.070312 -26.230469 2.070312 -23.679688 C 2.070312 -20.386719 6.917969 -6.402344 8.621094 -3.183594 C 9.027344 -2.40625 9.582031 -1.664062 10.324219 -1.109375 C 11.0625 -0.554688 11.988281 -0.371094 12.875 -0.371094 C 13.800781 -0.371094 14.835938 -0.445312 15.613281 -0.960938 C 18.5 -2.847656 23.972656 -19.71875 23.972656 -23.382812 C 23.972656 -26.304688 22.496094 -26.230469 20.089844 -26.230469 C 19.535156 -26.230469 18.832031 -26.15625 18.386719 -25.75 C 17.980469 -25.34375 17.648438 -24.675781 17.460938 -24.160156 C 16.761719 -22.199219 14.207031 -10.433594 13.023438 -9.914062 Z M 13.023438 -9.914062 "/></g></g></g><g fill="#421100" fill-opacity="1"><g transform="translate(156.647332, 267.381047)"><g><path d="M 4.21875 -18.683594 C 4.21875 -16.980469 4.402344 -10.175781 5.957031 -9.359375 C 6.511719 -9.0625 7.214844 -9.0625 7.84375 -9.0625 C 8.84375 -9.0625 10.027344 -9.101562 10.839844 -9.804688 C 12.097656 -10.914062 12.320312 -17.351562 12.320312 -19.128906 L 12.320312 -21.792969 C 12.320312 -24.492188 11.914062 -26.5625 8.695312 -26.5625 C 5.882812 -26.5625 4.21875 -25.859375 4.21875 -22.753906 Z M 6.402344 -6.214844 C 5.402344 -6.214844 4.585938 -5.660156 4.585938 -4.625 C 4.585938 -1.257812 5.03125 -0.445312 8.546875 -0.445312 C 10.765625 -0.445312 11.914062 -1.367188 11.914062 -3.664062 L 11.914062 -4.292969 C 11.914062 -5.84375 11.171875 -6.214844 9.730469 -6.214844 Z M 6.402344 -6.214844 "/></g></g></g><g fill="#421100" fill-opacity="1"><g transform="translate(170.927572, 267.381047)"><g><path d="M 10.0625 -8.175781 C 10.0625 -8.695312 10.0625 -9.25 10.175781 -9.765625 C 10.25 -10.101562 10.359375 -10.433594 10.617188 -10.65625 C 11.320312 -11.246094 13.132812 -11.136719 14.058594 -11.136719 C 15.242188 -11.136719 18.941406 -10.914062 19.644531 -11.949219 C 19.90625 -12.355469 19.980469 -12.949219 19.980469 -13.429688 C 19.980469 -14.023438 19.980469 -15.09375 19.609375 -15.574219 C 19.015625 -16.351562 17.90625 -16.5 16.980469 -16.5 C 15.871094 -16.5 14.761719 -16.390625 13.652344 -16.390625 C 12.320312 -16.390625 10.101562 -16.5 10.101562 -18.3125 C 10.101562 -20.792969 11.097656 -20.753906 13.207031 -20.753906 C 14.429688 -20.753906 15.648438 -20.570312 16.871094 -20.570312 C 17.980469 -20.570312 20.386719 -20.535156 20.386719 -22.125 C 20.386719 -23.085938 20.238281 -24.195312 19.535156 -24.9375 C 18.351562 -26.195312 16.316406 -26.5625 14.652344 -26.5625 C 6.695312 -26.5625 2.480469 -26.488281 2.480469 -17.167969 C 2.480469 -15.6875 2.515625 -14.242188 2.515625 -12.765625 C 2.515625 -10.953125 2.554688 -9.136719 2.664062 -7.324219 C 2.847656 -4.550781 3.589844 -2.332031 6.328125 -1.222656 C 8.769531 -0.222656 11.839844 -0.445312 14.464844 -0.445312 C 16.871094 -0.445312 20.347656 -1 20.347656 -4.070312 C 20.347656 -5.808594 20.050781 -6.328125 18.238281 -6.328125 C 16.203125 -6.328125 14.132812 -6.214844 12.097656 -6.214844 C 10.765625 -6.214844 10.0625 -6.84375 10.0625 -8.175781 Z M 10.0625 -8.175781 "/></g></g></g><g fill="#421100" fill-opacity="1"><g transform="translate(191.497158, 267.381047)"><g><path d="M 9.507812 -3.292969 C 9.507812 -5.328125 9.398438 -7.363281 9.398438 -9.359375 C 9.398438 -9.914062 9.359375 -12.652344 9.765625 -12.914062 C 11.136719 -12.914062 10.878906 -5.773438 15.871094 -5.773438 C 21.496094 -5.773438 20.496094 -12.949219 22.308594 -12.949219 C 22.382812 -12.429688 22.570312 -11.988281 22.570312 -11.433594 C 22.570312 -8.695312 22.421875 -5.957031 22.421875 -3.21875 C 22.421875 -1.554688 22.828125 -0.738281 24.601562 -0.738281 C 25.824219 -0.738281 26.785156 -0.59375 27.636719 -1.554688 C 29.597656 -3.773438 29.746094 -9.0625 29.746094 -11.949219 C 29.746094 -12.765625 29.710938 -13.542969 29.710938 -14.355469 C 29.710938 -17.5 29.636719 -21.867188 28.191406 -24.675781 C 27.601562 -25.859375 26.601562 -26.304688 25.304688 -26.304688 C 24.046875 -26.304688 22.53125 -26.417969 21.605469 -25.378906 C 20.015625 -23.53125 18.164062 -13.875 15.722656 -13.875 C 13.726562 -13.875 11.914062 -24.898438 9.546875 -25.972656 C 8.992188 -26.230469 8.433594 -26.304688 7.84375 -26.304688 C 7.03125 -26.304688 6.179688 -26.230469 5.402344 -25.972656 C 4.550781 -25.714844 3.996094 -25.046875 3.625 -24.269531 C 2.589844 -22.085938 2.40625 -16.351562 2.40625 -13.835938 C 2.40625 -11.285156 2.40625 -2.480469 4.773438 -1.109375 C 5.550781 -0.664062 6.402344 -0.703125 7.25 -0.703125 C 9.101562 -0.703125 9.507812 -1.554688 9.507812 -3.292969 Z M 9.507812 -3.292969 "/></g></g></g><g fill="#421100" fill-opacity="1"><g transform="translate(221.315745, 267.381047)"><g><path d="M 13.613281 -26.898438 C 6.253906 -26.898438 0.777344 -20.71875 0.777344 -13.503906 C 0.777344 -5.808594 6.660156 -0.0742188 14.316406 -0.0742188 C 21.605469 -0.0742188 27.304688 -6.363281 27.304688 -13.503906 C 27.304688 -21.3125 21.3125 -26.898438 13.613281 -26.898438 Z M 14.355469 -5.992188 C 10.324219 -5.992188 8.472656 -8.992188 8.472656 -12.726562 C 8.472656 -16.5 9.359375 -20.976562 14.023438 -20.976562 C 18.792969 -20.976562 19.570312 -16.539062 19.570312 -12.726562 C 19.570312 -9.621094 17.90625 -5.992188 14.355469 -5.992188 Z M 14.355469 -5.992188 "/></g></g></g><g fill="#421100" fill-opacity="1"><g transform="translate(247.064767, 267.381047)"><g><path d="M 24.457031 -14.652344 C 24.457031 -17.054688 24.308594 -23.9375 22.640625 -25.566406 C 22.125 -26.082031 20.867188 -26.304688 20.125 -26.304688 C 18.238281 -26.304688 17.167969 -26.195312 17.167969 -23.972656 C 17.167969 -22.640625 17.277344 -21.347656 17.277344 -20.015625 C 17.277344 -19.238281 17.351562 -14.910156 16.316406 -14.910156 C 14.390625 -14.910156 11.988281 -26.34375 7.511719 -26.34375 C 6.695312 -26.34375 6.03125 -26.34375 5.214844 -26.046875 C 2.515625 -25.085938 2.441406 -17.683594 2.441406 -15.28125 C 2.441406 -12.765625 2.441406 -3.109375 4.179688 -1.441406 C 4.808594 -0.851562 6.328125 -0.703125 7.175781 -0.703125 C 9.027344 -0.703125 9.804688 -1.664062 9.804688 -3.476562 C 9.804688 -5.4375 9.65625 -7.398438 9.65625 -9.359375 C 9.65625 -9.878906 9.65625 -12.578125 10.324219 -12.578125 C 11.726562 -12.578125 15.648438 -1.886719 17.796875 -0.886719 C 18.277344 -0.664062 18.757812 -0.628906 19.277344 -0.628906 C 20.496094 -0.628906 21.605469 -0.738281 22.605469 -1.480469 C 24.417969 -2.8125 24.457031 -9.65625 24.457031 -11.800781 Z M 24.457031 -14.652344 "/></g></g></g><g fill="#421100" fill-opacity="1"><g transform="translate(271.703917, 267.381047)"><g><path d="M 2.441406 -14.355469 C 2.441406 -11.691406 2.40625 -3.253906 4.253906 -1.441406 C 4.921875 -0.777344 6.769531 -0.59375 7.695312 -0.59375 C 9.546875 -0.59375 10.136719 -1.886719 10.136719 -3.589844 C 10.136719 -4.773438 10.027344 -5.992188 10.027344 -7.175781 C 10.027344 -7.660156 9.953125 -10.136719 10.691406 -10.136719 C 13.097656 -10.136719 14.355469 -0.664062 18.980469 -0.664062 C 19.941406 -0.664062 23.714844 -0.703125 23.714844 -2.109375 C 23.714844 -5.289062 18.351562 -10.324219 18.351562 -14.429688 C 18.351562 -17.019531 23.34375 -22.457031 23.34375 -24.75 C 23.34375 -26.15625 21.089844 -26.34375 20.050781 -26.34375 C 18.792969 -26.34375 17.796875 -26.453125 16.722656 -25.714844 C 16.09375 -25.269531 15.574219 -24.714844 15.09375 -24.121094 C 14.613281 -23.492188 14.207031 -22.789062 13.875 -22.050781 C 13.355469 -20.902344 11.914062 -17.722656 10.507812 -17.722656 C 10.027344 -17.722656 10.027344 -18.5 10.027344 -18.832031 C 10.027344 -20.164062 10.136719 -21.457031 10.136719 -22.789062 C 10.136719 -23.863281 10.285156 -25.972656 8.878906 -26.230469 C 8.433594 -26.304688 7.953125 -26.34375 7.511719 -26.34375 C 6.4375 -26.34375 5.328125 -26.269531 4.441406 -25.601562 C 2.480469 -24.085938 2.441406 -16.761719 2.441406 -14.355469 Z M 2.441406 -14.355469 "/></g></g></g><g fill="#421100" fill-opacity="1"><g transform="translate(121.600081, 289.125859)"><g><path d="M 1.390625 0 C 1.285156 0 1.195312 -0.03125 1.125 -0.09375 C 1.0625 -0.164062 1.03125 -0.25 1.03125 -0.34375 L 1.03125 -9.453125 C 1.03125 -9.554688 1.0625 -9.640625 1.125 -9.703125 C 1.195312 -9.765625 1.285156 -9.796875 1.390625 -9.796875 L 2.703125 -9.796875 C 2.835938 -9.796875 2.941406 -9.757812 3.015625 -9.6875 C 3.085938 -9.613281 3.132812 -9.554688 3.15625 -9.515625 L 5.734375 -4.78125 L 8.328125 -9.515625 C 8.347656 -9.554688 8.390625 -9.613281 8.453125 -9.6875 C 8.523438 -9.757812 8.632812 -9.796875 8.78125 -9.796875 L 10.078125 -9.796875 C 10.179688 -9.796875 10.265625 -9.765625 10.328125 -9.703125 C 10.398438 -9.640625 10.4375 -9.554688 10.4375 -9.453125 L 10.4375 -0.34375 C 10.4375 -0.25 10.398438 -0.164062 10.328125 -0.09375 C 10.265625 -0.03125 10.179688 0 10.078125 0 L 8.65625 0 C 8.5625 0 8.476562 -0.03125 8.40625 -0.09375 C 8.34375 -0.164062 8.3125 -0.25 8.3125 -0.34375 L 8.3125 -5.984375 L 6.53125 -2.671875 C 6.5 -2.585938 6.445312 -2.515625 6.375 -2.453125 C 6.300781 -2.390625 6.195312 -2.359375 6.0625 -2.359375 L 5.40625 -2.359375 C 5.28125 -2.359375 5.179688 -2.390625 5.109375 -2.453125 C 5.035156 -2.515625 4.972656 -2.585938 4.921875 -2.671875 L 3.15625 -5.984375 L 3.15625 -0.34375 C 3.15625 -0.25 3.125 -0.164062 3.0625 -0.09375 C 3 -0.03125 2.914062 0 2.8125 0 Z M 1.390625 0 "/></g></g></g><g fill="#421100" fill-opacity="1"><g transform="translate(144.259699, 289.125859)"><g><path d="M 4.921875 0.140625 C 4.078125 0.140625 3.347656 0 2.734375 -0.28125 C 2.117188 -0.5625 1.632812 -0.984375 1.28125 -1.546875 C 0.9375 -2.109375 0.753906 -2.820312 0.734375 -3.6875 C 0.722656 -4.082031 0.71875 -4.476562 0.71875 -4.875 C 0.71875 -5.269531 0.722656 -5.675781 0.734375 -6.09375 C 0.753906 -6.925781 0.9375 -7.628906 1.28125 -8.203125 C 1.632812 -8.785156 2.125 -9.21875 2.75 -9.5 C 3.375 -9.789062 4.097656 -9.9375 4.921875 -9.9375 C 5.742188 -9.9375 6.460938 -9.789062 7.078125 -9.5 C 7.703125 -9.21875 8.191406 -8.785156 8.546875 -8.203125 C 8.910156 -7.628906 9.101562 -6.925781 9.125 -6.09375 C 9.144531 -5.675781 9.15625 -5.269531 9.15625 -4.875 C 9.15625 -4.476562 9.144531 -4.082031 9.125 -3.6875 C 9.101562 -2.820312 8.914062 -2.109375 8.5625 -1.546875 C 8.207031 -0.984375 7.722656 -0.5625 7.109375 -0.28125 C 6.492188 0 5.765625 0.140625 4.921875 0.140625 Z M 4.921875 -1.6875 C 5.460938 -1.6875 5.910156 -1.847656 6.265625 -2.171875 C 6.617188 -2.492188 6.800781 -3.019531 6.8125 -3.75 C 6.832031 -4.164062 6.84375 -4.550781 6.84375 -4.90625 C 6.84375 -5.269531 6.832031 -5.648438 6.8125 -6.046875 C 6.800781 -6.535156 6.710938 -6.929688 6.546875 -7.234375 C 6.378906 -7.546875 6.15625 -7.769531 5.875 -7.90625 C 5.601562 -8.050781 5.285156 -8.125 4.921875 -8.125 C 4.566406 -8.125 4.25 -8.050781 3.96875 -7.90625 C 3.695312 -7.769531 3.472656 -7.546875 3.296875 -7.234375 C 3.128906 -6.929688 3.039062 -6.535156 3.03125 -6.046875 C 3.019531 -5.648438 3.015625 -5.269531 3.015625 -4.90625 C 3.015625 -4.550781 3.019531 -4.164062 3.03125 -3.75 C 3.050781 -3.019531 3.234375 -2.492188 3.578125 -2.171875 C 3.929688 -1.847656 4.378906 -1.6875 4.921875 -1.6875 Z M 4.921875 -1.6875 "/></g></g></g><g fill="#421100" fill-opacity="1"><g transform="translate(165.296224, 289.125859)"><g><path d="M 1.375 0 C 1.28125 0 1.195312 -0.03125 1.125 -0.09375 C 1.0625 -0.164062 1.03125 -0.25 1.03125 -0.34375 L 1.03125 -9.453125 C 1.03125 -9.554688 1.0625 -9.640625 1.125 -9.703125 C 1.195312 -9.765625 1.28125 -9.796875 1.375 -9.796875 L 2.65625 -9.796875 C 2.800781 -9.796875 2.90625 -9.765625 2.96875 -9.703125 C 3.03125 -9.640625 3.070312 -9.585938 3.09375 -9.546875 L 6.8125 -3.71875 L 6.8125 -9.453125 C 6.8125 -9.554688 6.84375 -9.640625 6.90625 -9.703125 C 6.976562 -9.765625 7.066406 -9.796875 7.171875 -9.796875 L 8.59375 -9.796875 C 8.695312 -9.796875 8.78125 -9.765625 8.84375 -9.703125 C 8.914062 -9.640625 8.953125 -9.554688 8.953125 -9.453125 L 8.953125 -0.34375 C 8.953125 -0.25 8.914062 -0.164062 8.84375 -0.09375 C 8.78125 -0.03125 8.695312 0 8.59375 0 L 7.3125 0 C 7.164062 0 7.0625 -0.03125 7 -0.09375 C 6.9375 -0.164062 6.894531 -0.21875 6.875 -0.25 L 3.15625 -5.890625 L 3.15625 -0.34375 C 3.15625 -0.25 3.125 -0.164062 3.0625 -0.09375 C 3 -0.03125 2.914062 0 2.8125 0 Z M 1.375 0 "/></g></g></g><g fill="#421100" fill-opacity="1"><g transform="translate(186.472674, 289.125859)"><g><path d="M 1.375 0 C 1.28125 0 1.195312 -0.03125 1.125 -0.09375 C 1.0625 -0.164062 1.03125 -0.25 1.03125 -0.34375 L 1.03125 -9.453125 C 1.03125 -9.554688 1.0625 -9.640625 1.125 -9.703125 C 1.195312 -9.765625 1.28125 -9.796875 1.375 -9.796875 L 2.890625 -9.796875 C 2.984375 -9.796875 3.0625 -9.765625 3.125 -9.703125 C 3.195312 -9.640625 3.234375 -9.554688 3.234375 -9.453125 L 3.234375 -6.265625 L 6.109375 -9.53125 C 6.140625 -9.59375 6.195312 -9.648438 6.28125 -9.703125 C 6.375 -9.765625 6.5 -9.796875 6.65625 -9.796875 L 8.359375 -9.796875 C 8.429688 -9.796875 8.5 -9.765625 8.5625 -9.703125 C 8.625 -9.648438 8.65625 -9.582031 8.65625 -9.5 C 8.65625 -9.4375 8.632812 -9.382812 8.59375 -9.34375 L 5 -5.109375 L 8.859375 -0.46875 C 8.898438 -0.425781 8.921875 -0.367188 8.921875 -0.296875 C 8.921875 -0.222656 8.890625 -0.15625 8.828125 -0.09375 C 8.765625 -0.03125 8.695312 0 8.625 0 L 6.859375 0 C 6.691406 0 6.566406 -0.0351562 6.484375 -0.109375 C 6.398438 -0.179688 6.34375 -0.234375 6.3125 -0.265625 L 3.234375 -3.84375 L 3.234375 -0.34375 C 3.234375 -0.25 3.195312 -0.164062 3.125 -0.09375 C 3.0625 -0.03125 2.984375 0 2.890625 0 Z M 1.375 0 "/></g></g></g><g fill="#421100" fill-opacity="1"><g transform="translate(206.725648, 289.125859)"><g><path d="M 1.375 0 C 1.28125 0 1.195312 -0.03125 1.125 -0.09375 C 1.0625 -0.164062 1.03125 -0.25 1.03125 -0.34375 L 1.03125 -9.453125 C 1.03125 -9.554688 1.0625 -9.640625 1.125 -9.703125 C 1.195312 -9.765625 1.28125 -9.796875 1.375 -9.796875 L 2.984375 -9.796875 C 3.078125 -9.796875 3.15625 -9.765625 3.21875 -9.703125 C 3.28125 -9.640625 3.3125 -9.554688 3.3125 -9.453125 L 3.3125 -0.34375 C 3.3125 -0.25 3.28125 -0.164062 3.21875 -0.09375 C 3.15625 -0.03125 3.078125 0 2.984375 0 Z M 1.375 0 "/></g></g></g><g fill="#421100" fill-opacity="1"><g transform="translate(222.27724, 289.125859)"><g><path d="M 1.375 0 C 1.28125 0 1.195312 -0.03125 1.125 -0.09375 C 1.0625 -0.164062 1.03125 -0.25 1.03125 -0.34375 L 1.03125 -9.453125 C 1.03125 -9.554688 1.0625 -9.640625 1.125 -9.703125 C 1.195312 -9.765625 1.28125 -9.796875 1.375 -9.796875 L 2.65625 -9.796875 C 2.800781 -9.796875 2.90625 -9.765625 2.96875 -9.703125 C 3.03125 -9.640625 3.070312 -9.585938 3.09375 -9.546875 L 6.8125 -3.71875 L 6.8125 -9.453125 C 6.8125 -9.554688 6.84375 -9.640625 6.90625 -9.703125 C 6.976562 -9.765625 7.066406 -9.796875 7.171875 -9.796875 L 8.59375 -9.796875 C 8.695312 -9.796875 8.78125 -9.765625 8.84375 -9.703125 C 8.914062 -9.640625 8.953125 -9.554688 8.953125 -9.453125 L 8.953125 -0.34375 C 8.953125 -0.25 8.914062 -0.164062 8.84375 -0.09375 C 8.78125 -0.03125 8.695312 0 8.59375 0 L 7.3125 0 C 7.164062 0 7.0625 -0.03125 7 -0.09375 C 6.9375 -0.164062 6.894531 -0.21875 6.875 -0.25 L 3.15625 -5.890625 L 3.15625 -0.34375 C 3.15625 -0.25 3.125 -0.164062 3.0625 -0.09375 C 3 -0.03125 2.914062 0 2.8125 0 Z M 1.375 0 "/></g></g></g><g fill="#421100" fill-opacity="1"><g transform="translate(243.453695, 289.125859)"><g><path d="M 4.96875 0.140625 C 4.09375 0.140625 3.34375 -0.00390625 2.71875 -0.296875 C 2.101562 -0.585938 1.625 -1.015625 1.28125 -1.578125 C 0.9375 -2.148438 0.753906 -2.835938 0.734375 -3.640625 C 0.722656 -4.035156 0.71875 -4.460938 0.71875 -4.921875 C 0.71875 -5.378906 0.722656 -5.816406 0.734375 -6.234375 C 0.753906 -7.015625 0.9375 -7.679688 1.28125 -8.234375 C 1.625 -8.785156 2.109375 -9.207031 2.734375 -9.5 C 3.367188 -9.789062 4.113281 -9.9375 4.96875 -9.9375 C 5.65625 -9.9375 6.257812 -9.847656 6.78125 -9.671875 C 7.3125 -9.492188 7.753906 -9.257812 8.109375 -8.96875 C 8.472656 -8.6875 8.742188 -8.378906 8.921875 -8.046875 C 9.109375 -7.710938 9.207031 -7.382812 9.21875 -7.0625 C 9.21875 -6.976562 9.1875 -6.910156 9.125 -6.859375 C 9.070312 -6.804688 9 -6.78125 8.90625 -6.78125 L 7.171875 -6.78125 C 7.078125 -6.78125 7.003906 -6.796875 6.953125 -6.828125 C 6.898438 -6.867188 6.851562 -6.925781 6.8125 -7 C 6.75 -7.15625 6.644531 -7.320312 6.5 -7.5 C 6.351562 -7.675781 6.160156 -7.820312 5.921875 -7.9375 C 5.679688 -8.0625 5.363281 -8.125 4.96875 -8.125 C 4.382812 -8.125 3.921875 -7.96875 3.578125 -7.65625 C 3.234375 -7.351562 3.050781 -6.851562 3.03125 -6.15625 C 3 -5.351562 3 -4.535156 3.03125 -3.703125 C 3.050781 -2.984375 3.238281 -2.46875 3.59375 -2.15625 C 3.945312 -1.84375 4.414062 -1.6875 5 -1.6875 C 5.382812 -1.6875 5.726562 -1.753906 6.03125 -1.890625 C 6.332031 -2.023438 6.570312 -2.234375 6.75 -2.515625 C 6.925781 -2.796875 7.015625 -3.160156 7.015625 -3.609375 L 7.015625 -3.96875 L 5.484375 -3.96875 C 5.390625 -3.96875 5.3125 -4 5.25 -4.0625 C 5.1875 -4.132812 5.15625 -4.21875 5.15625 -4.3125 L 5.15625 -5.203125 C 5.15625 -5.304688 5.1875 -5.390625 5.25 -5.453125 C 5.3125 -5.523438 5.390625 -5.5625 5.484375 -5.5625 L 8.9375 -5.5625 C 9.039062 -5.5625 9.125 -5.523438 9.1875 -5.453125 C 9.25 -5.390625 9.28125 -5.304688 9.28125 -5.203125 L 9.28125 -3.6875 C 9.28125 -2.882812 9.101562 -2.195312 8.75 -1.625 C 8.394531 -1.050781 7.890625 -0.613281 7.234375 -0.3125 C 6.585938 -0.0078125 5.832031 0.140625 4.96875 0.140625 Z M 4.96875 0.140625 "/></g></g></g></svg>